<?xml version="1.0" standalone="no"?>
<!DOCTYPE svg PUBLIC "-//W3C//DTD SVG 20010904//EN"
 "http://www.w3.org/TR/2001/REC-SVG-20010904/DTD/svg10.dtd">
<svg version="1.0" xmlns="http://www.w3.org/2000/svg"
 width="3744.000000pt" height="3744.000000pt" viewBox="0 0 3744.000000 3744.000000"
 preserveAspectRatio="xMidYMid meet">
<metadata>
Created by potrace 1.11, written by Peter Selinger 2001-2013
</metadata>
<g transform="translate(0.000000,3744.000000) scale(0.100000,-0.100000)"
fill="#000000" stroke="none">
<path d="M18637 34898 c-10 -18 -25 -46 -35 -63 -11 -16 -74 -127 -142 -245
-68 -118 -131 -228 -142 -245 -10 -16 -21 -36 -25 -44 -6 -13 -122 -217 -142
-251 -20 -33 -218 -376 -244 -424 -16 -28 -35 -62 -44 -75 -8 -12 -29 -48 -45
-80 -17 -31 -36 -63 -42 -71 -6 -8 -20 -33 -31 -55 -11 -22 -22 -42 -25 -45
-7 -7 -29 -42 -37 -60 -4 -8 -47 -85 -96 -170 -83 -144 -275 -478 -807 -1405
-216 -375 -303 -528 -319 -555 -9 -14 -205 -355 -544 -945 -82 -143 -159 -276
-169 -295 -11 -19 -37 -64 -58 -100 -21 -36 -47 -81 -57 -100 -11 -19 -54 -94
-96 -167 -42 -72 -86 -149 -98 -170 -23 -42 -309 -538 -482 -838 -60 -104
-121 -210 -135 -235 -14 -25 -100 -175 -192 -335 -92 -159 -184 -321 -206
-358 -21 -38 -47 -83 -58 -100 -10 -18 -81 -142 -159 -277 -77 -135 -224 -391
-327 -570 -103 -179 -196 -341 -207 -360 -11 -19 -142 -248 -292 -508 -150
-261 -280 -488 -290 -505 -10 -18 -43 -75 -73 -127 -54 -93 -343 -596 -480
-835 -37 -66 -72 -127 -77 -135 -5 -8 -67 -116 -139 -240 -71 -124 -180 -314
-243 -422 -63 -109 -118 -206 -124 -216 -79 -140 -136 -240 -172 -299 -23 -40
-43 -75 -43 -79 0 -3 -8 -18 -19 -32 -10 -15 -29 -47 -43 -72 -14 -25 -34 -61
-45 -80 -88 -152 -411 -714 -431 -750 -13 -25 -39 -70 -57 -100 -62 -105 -144
-247 -317 -550 -96 -168 -271 -471 -388 -675 -117 -203 -224 -390 -238 -415
-13 -25 -28 -49 -32 -55 -4 -5 -20 -32 -35 -60 -15 -27 -70 -124 -123 -215
-52 -91 -104 -181 -115 -200 -77 -137 -112 -197 -125 -212 -8 -10 -11 -18 -7
-18 4 0 1 -8 -7 -17 -8 -10 -62 -100 -119 -201 -57 -100 -111 -195 -120 -210
-9 -15 -123 -214 -254 -442 -131 -228 -241 -419 -245 -425 -4 -5 -20 -32 -35
-60 -15 -27 -55 -97 -88 -155 -33 -58 -60 -109 -60 -115 0 -5 68 -127 150
-270 82 -143 161 -280 175 -305 14 -25 66 -116 116 -203 51 -87 92 -160 92
-163 0 -2 11 -21 23 -42 13 -20 35 -57 49 -82 14 -25 50 -88 80 -140 30 -52
66 -115 80 -140 14 -25 86 -151 160 -280 74 -129 146 -255 160 -280 14 -25 76
-132 137 -239 61 -106 111 -197 111 -202 0 -5 5 -9 10 -9 6 0 10 -4 10 -10 0
-5 59 -112 131 -237 72 -125 145 -253 161 -283 17 -30 37 -63 46 -72 8 -10 12
-18 7 -18 -4 0 -3 -6 3 -13 9 -10 231 -394 340 -587 45 -79 174 -304 193 -335
10 -16 32 -57 50 -90 17 -33 40 -72 50 -87 11 -14 19 -28 19 -31 0 -2 23 -44
51 -93 29 -49 63 -109 77 -134 14 -25 95 -166 180 -315 85 -148 164 -286 175
-305 11 -19 137 -240 280 -490 143 -250 265 -464 271 -475 6 -11 76 -134 156
-272 80 -139 150 -261 155 -270 104 -185 139 -244 145 -248 4 -2 50 71 103
163 52 92 170 298 262 457 92 160 177 307 189 328 11 21 26 46 31 55 6 9 37
64 70 122 33 57 65 114 72 125 7 11 18 31 25 45 7 14 15 27 18 30 3 3 13 21
24 40 10 19 86 152 169 295 166 290 172 300 212 370 60 105 86 151 95 165 8
12 615 1067 977 1700 52 91 99 172 104 180 5 8 38 67 74 130 36 63 69 122 75
130 5 8 21 38 36 65 14 28 32 57 40 66 8 8 14 18 14 21 0 4 38 72 85 153 47
80 96 165 109 188 13 23 67 119 121 212 54 94 106 185 117 203 10 18 53 93 95
165 42 73 86 150 98 172 13 22 71 123 130 225 59 102 117 203 129 225 21 37
243 424 471 820 54 94 107 186 118 205 10 19 23 40 27 45 4 6 21 35 37 65 35
64 407 711 434 755 11 17 22 37 26 45 6 14 142 249 278 485 58 100 76 132 116
203 12 20 63 109 114 197 50 88 103 180 117 205 14 25 94 164 178 310 84 146
229 398 322 560 92 162 173 302 178 310 5 8 34 59 65 113 31 53 61 95 66 92 5
-4 9 -10 9 -14 0 -5 22 -46 49 -92 27 -46 68 -118 91 -159 24 -41 53 -91 65
-110 20 -32 517 -889 562 -970 23 -41 219 -378 232 -400 8 -13 87 -148 329
-565 19 -33 42 -73 52 -90 9 -16 140 -241 290 -500 150 -258 284 -490 298
-515 14 -25 53 -92 87 -150 34 -58 106 -181 160 -275 54 -93 143 -246 197
-339 54 -92 98 -170 98 -173 0 -3 8 -17 19 -31 10 -15 29 -47 43 -72 14 -25
74 -128 133 -230 59 -102 115 -198 125 -215 9 -16 75 -129 145 -250 70 -121
136 -233 145 -250 10 -16 56 -97 104 -179 47 -82 86 -151 86 -153 0 -2 9 -16
19 -31 10 -15 77 -128 148 -252 72 -124 169 -292 217 -373 47 -82 86 -153 86
-158 0 -5 5 -9 10 -9 6 0 10 -5 10 -10 0 -9 40 -80 100 -180 31 -51 130 -222
130 -225 0 -2 43 -76 90 -155 14 -24 492 -848 519 -894 13 -22 81 -140 151
-261 70 -121 176 -303 235 -405 59 -102 116 -198 126 -215 10 -16 26 -46 37
-65 11 -19 115 -199 232 -400 117 -201 224 -385 238 -410 13 -25 53 -92 87
-150 34 -58 73 -125 87 -150 85 -151 164 -281 172 -281 5 -1 113 176 239 392
127 217 238 408 248 424 10 17 24 41 32 55 7 14 126 219 264 455 308 528 272
465 374 642 47 81 220 378 384 658 164 281 353 605 420 720 67 116 162 278
210 360 48 83 98 168 110 190 28 51 241 415 255 435 5 8 18 31 28 50 10 19
144 249 297 510 253 432 357 611 405 695 9 17 75 129 147 250 71 122 132 227
136 235 4 8 17 31 28 50 12 19 59 100 106 180 47 80 108 183 135 229 51 88 51
89 19 141 -12 19 -102 174 -128 220 -11 19 -59 102 -107 183 -47 82 -86 153
-86 158 0 5 -4 9 -8 9 -4 0 -13 12 -20 28 -6 15 -21 43 -33 62 -12 19 -85 145
-164 280 -144 247 -171 295 -365 630 -59 102 -181 311 -270 465 -89 154 -172
296 -182 315 -11 19 -42 72 -69 118 -27 45 -49 87 -49 92 0 6 -4 10 -10 10 -5
0 -10 4 -10 9 0 8 -212 380 -240 421 -6 8 -13 22 -17 30 -4 8 -16 31 -28 50
-12 19 -33 55 -47 80 -14 25 -49 86 -78 135 -29 50 -60 104 -70 120 -45 79
-111 192 -120 205 -9 14 -20 33 -92 160 -14 25 -71 122 -125 216 -55 94 -103
177 -106 185 -4 8 -16 28 -26 44 -19 31 -175 298 -216 370 -32 56 -139 241
-289 498 -70 120 -138 239 -153 265 -24 44 -51 90 -80 137 -6 11 -44 76 -84
145 -119 206 -199 345 -316 545 -61 105 -168 289 -238 410 -70 121 -201 346
-290 500 -90 154 -172 296 -183 315 -11 19 -43 76 -72 125 -29 50 -62 106 -72
125 -11 19 -24 40 -28 45 -4 6 -20 33 -35 60 -15 28 -149 259 -298 515 -148
256 -313 539 -365 630 -52 91 -112 194 -133 229 -22 34 -39 65 -39 67 0 2 -28
52 -63 111 -92 157 -212 363 -235 403 -10 19 -107 186 -214 370 -239 411 -379
653 -406 701 -11 20 -41 70 -66 112 -25 41 -46 78 -46 80 0 3 -29 53 -65 112
-36 59 -65 109 -65 110 0 1 -46 80 -101 176 -56 96 -111 190 -122 209 -40 71
-310 536 -328 565 -10 17 -22 36 -26 44 -3 7 -56 100 -118 205 -61 106 -114
199 -118 207 -4 7 -15 28 -25 44 -11 17 -142 242 -292 500 -229 394 -331 569
-510 880 -9 17 -89 154 -177 305 -88 151 -194 334 -235 405 -41 72 -115 198
-163 280 -48 83 -98 168 -110 190 -13 22 -93 161 -179 308 -86 148 -156 270
-156 272 0 2 -29 51 -65 110 -36 59 -65 109 -65 111 0 2 -35 63 -78 136 -43
73 -90 153 -104 178 -14 25 -66 115 -115 200 -50 85 -99 169 -109 187 -11 18
-56 97 -101 175 -46 79 -86 149 -91 156 -6 8 -13 3 -25 -20z m121 -3470 c51
-86 101 -174 113 -195 12 -21 30 -51 40 -68 10 -16 26 -43 35 -60 9 -16 162
-280 339 -585 177 -305 330 -568 339 -585 9 -16 21 -37 26 -45 5 -8 55 -94
110 -190 56 -96 105 -182 110 -190 9 -16 188 -323 248 -425 19 -33 44 -76 55
-95 11 -19 27 -46 34 -60 8 -14 22 -39 33 -56 10 -18 52 -90 93 -160 41 -71
156 -271 257 -444 101 -173 191 -328 200 -345 47 -81 218 -376 348 -600 80
-137 153 -263 162 -280 10 -16 107 -183 215 -370 109 -187 206 -354 215 -370
9 -17 50 -87 90 -155 40 -69 86 -150 103 -180 16 -30 35 -62 41 -70 6 -8 16
-24 22 -35 11 -20 550 -950 649 -1120 29 -49 63 -108 75 -130 30 -54 190 -328
262 -448 32 -54 58 -99 58 -101 0 -3 9 -18 275 -476 97 -168 187 -323 200
-345 12 -22 62 -107 110 -190 48 -82 130 -224 183 -315 52 -91 157 -271 232
-400 75 -129 148 -255 162 -280 14 -25 130 -225 258 -445 128 -220 316 -544
418 -720 101 -176 213 -367 247 -425 34 -58 73 -125 87 -150 14 -25 58 -101
98 -170 40 -69 90 -154 110 -190 20 -36 67 -117 104 -180 37 -63 74 -126 82
-140 8 -14 40 -69 72 -123 31 -54 65 -113 75 -130 11 -18 104 -180 209 -362
105 -181 199 -342 209 -357 10 -15 19 -29 19 -32 0 -4 44 -81 87 -151 7 -11
15 -26 19 -34 4 -8 58 -102 121 -208 62 -107 113 -196 113 -198 0 -3 16 -29
35 -59 19 -30 35 -57 35 -60 0 -3 14 -28 32 -56 28 -45 30 -54 19 -72 -7 -12
-25 -42 -39 -67 -13 -25 -32 -57 -42 -71 -9 -14 -20 -32 -23 -40 -4 -8 -11
-22 -17 -30 -12 -19 -164 -279 -198 -340 -13 -25 -28 -49 -32 -55 -4 -5 -65
-109 -135 -230 -218 -375 -256 -440 -457 -785 -108 -184 -204 -349 -214 -367
-11 -18 -86 -148 -169 -289 -82 -142 -151 -263 -153 -271 -2 -7 -8 -13 -13
-13 -5 0 -9 -4 -9 -9 0 -6 -29 -58 -64 -118 -124 -210 -211 -358 -222 -379 -6
-11 -39 -69 -74 -127 -59 -101 -64 -106 -75 -85 -6 13 -39 68 -71 123 -33 55
-63 107 -67 115 -4 8 -17 31 -28 50 -20 33 -182 312 -227 390 -35 61 -113 194
-123 210 -8 13 -88 152 -160 278 -11 17 -27 47 -38 65 -10 17 -132 228 -271
467 -139 239 -264 455 -278 480 -14 25 -53 92 -87 150 -34 58 -74 125 -87 150
-29 51 -248 428 -349 600 -67 115 -298 514 -343 593 -51 90 -256 443 -266 457
-5 8 -14 24 -20 35 -5 11 -22 41 -37 67 -22 36 -273 468 -397 681 -10 18 -51
88 -91 157 -40 69 -82 141 -93 160 -10 19 -59 103 -107 185 -48 83 -97 168
-110 190 -12 22 -75 130 -139 239 -64 110 -116 201 -116 203 0 2 -11 22 -26
44 -14 22 -33 55 -43 72 -27 47 -91 158 -111 192 -233 400 -316 544 -327 565
-8 14 -22 39 -32 55 -18 29 -190 326 -545 940 -93 160 -199 342 -236 405 -79
135 -422 727 -455 785 -13 22 -117 202 -232 400 -115 198 -276 476 -358 617
-115 198 -152 254 -158 240 -4 -9 -18 -33 -30 -54 -36 -59 -112 -192 -116
-203 -2 -5 -12 -21 -21 -35 -9 -14 -30 -47 -45 -75 -15 -27 -78 -138 -140
-245 -61 -107 -123 -215 -137 -240 -32 -55 -232 -403 -443 -770 -87 -151 -175
-304 -195 -340 -20 -36 -115 -200 -210 -365 -95 -165 -182 -316 -193 -335 -53
-94 -90 -158 -109 -190 -11 -19 -142 -246 -291 -505 -148 -258 -277 -483 -287
-500 -59 -103 -256 -446 -272 -475 -11 -19 -89 -154 -173 -300 -212 -367 -436
-758 -572 -995 -63 -110 -119 -207 -124 -215 -5 -8 -49 -85 -98 -170 -49 -85
-98 -171 -110 -190 -11 -19 -24 -42 -28 -50 -4 -8 -29 -53 -56 -100 -27 -47
-57 -98 -67 -115 -9 -16 -115 -201 -235 -409 -119 -209 -225 -393 -235 -410
-9 -17 -31 -54 -47 -82 -17 -27 -42 -71 -56 -96 -14 -25 -60 -106 -103 -180
-42 -73 -86 -149 -97 -168 -32 -57 -363 -634 -445 -775 -41 -71 -86 -150 -100
-174 -14 -25 -38 -67 -53 -93 -16 -27 -29 -53 -29 -58 0 -6 -4 -10 -10 -10 -5
0 -10 -4 -10 -8 0 -4 -49 -93 -109 -197 -60 -105 -249 -435 -421 -735 -172
-300 -316 -548 -319 -553 -4 -4 -21 16 -37 45 -38 69 -17 34 -274 481 -124
216 -230 401 -236 413 -6 11 -46 81 -89 155 -43 74 -89 154 -103 179 -14 25
-67 118 -118 207 -52 90 -94 166 -94 170 0 3 -6 14 -14 22 -7 9 -27 41 -43 71
-17 30 -55 98 -85 150 -30 52 -66 115 -80 140 -14 25 -59 104 -100 175 -41 72
-86 150 -100 175 -14 25 -147 257 -295 515 l-269 470 49 85 c27 47 59 103 72
125 12 22 168 292 345 600 177 308 332 577 344 598 11 21 26 46 31 55 6 9 25
44 44 77 19 33 127 220 239 415 113 195 216 375 230 400 14 25 75 131 135 235
61 105 124 215 140 245 16 30 33 60 37 65 4 6 18 28 30 50 23 40 230 401 368
639 41 72 83 145 93 163 18 32 79 139 119 208 9 17 61 107 115 200 155 269
205 356 238 415 16 30 35 61 41 69 6 8 22 35 36 61 20 37 165 291 294 513 55
96 260 454 283 494 14 26 39 70 56 97 16 28 39 67 49 86 62 109 123 216 128
220 3 3 13 21 23 40 10 19 23 44 30 55 7 11 35 61 64 110 28 50 93 162 144
250 50 88 102 178 114 200 12 22 51 90 87 151 36 61 68 117 71 125 4 8 17 30
28 49 19 32 428 742 469 816 10 16 51 88 92 160 67 115 403 699 450 782 10 17
26 47 37 65 10 17 96 167 191 332 95 165 181 314 190 330 10 17 41 70 69 118
28 49 51 91 51 93 0 2 11 23 26 45 14 22 33 55 43 72 10 18 98 172 196 342 98
171 209 364 247 430 37 66 72 127 77 135 12 19 113 195 138 240 11 19 46 80
78 135 80 138 162 281 192 335 22 39 45 79 90 155 17 28 75 131 108 190 15 28
31 55 35 60 6 8 178 306 381 663 11 17 27 47 38 65 80 138 323 562 343 597 14
25 50 88 80 140 31 52 74 129 98 170 65 115 112 192 115 188 1 -2 43 -74 93
-160z"/>
<path d="M6844 14378 c-32 -57 -64 -112 -71 -123 -7 -11 -15 -27 -20 -35 -4
-8 -20 -37 -36 -65 -17 -27 -73 -124 -125 -215 -52 -91 -103 -178 -113 -195
-10 -16 -22 -37 -26 -45 -5 -12 -129 -229 -209 -367 -11 -18 -57 -99 -104
-180 -47 -81 -90 -157 -97 -168 -7 -11 -15 -27 -19 -35 -4 -8 -34 -59 -66
-113 -32 -53 -58 -99 -58 -101 0 -4 -90 -160 -118 -206 -9 -14 -15 -26 -14
-27 1 -2 -13 -27 -32 -55 -18 -29 -44 -73 -58 -98 -14 -25 -78 -137 -143 -250
-166 -288 -532 -926 -563 -980 -51 -90 -273 -475 -303 -525 -10 -16 -26 -46
-37 -65 -21 -39 -324 -566 -557 -970 -84 -146 -165 -287 -180 -315 -16 -27
-39 -67 -52 -87 -12 -21 -23 -40 -23 -44 0 -3 -8 -18 -18 -32 -11 -15 -32 -52
-49 -82 -17 -30 -44 -78 -60 -106 -17 -27 -41 -70 -55 -95 -14 -24 -68 -118
-120 -209 -52 -91 -156 -271 -230 -400 -131 -228 -457 -794 -504 -875 -13 -22
-27 -47 -31 -55 -3 -8 -25 -46 -48 -85 -24 -38 -53 -90 -66 -114 -13 -24 -28
-51 -34 -60 -5 -9 -56 -97 -113 -196 -57 -99 -107 -187 -112 -195 -29 -46
-170 -293 -170 -296 0 -2 -18 -33 -40 -69 -22 -36 -40 -67 -40 -70 0 -4 -67
-119 -90 -155 -6 -8 -13 -22 -17 -30 -3 -8 -25 -46 -48 -85 -23 -38 -57 -97
-76 -130 -19 -33 -39 -69 -46 -80 -7 -11 -15 -27 -19 -35 -4 -8 -27 -48 -51
-88 -24 -41 -43 -76 -43 -79 0 -3 -8 -17 -19 -31 -10 -15 -27 -43 -38 -62 -19
-36 -134 -237 -167 -293 -10 -18 -57 -99 -104 -182 -47 -82 -92 -161 -101
-175 -8 -14 -23 -38 -32 -55 -9 -16 -128 -223 -264 -460 -136 -236 -256 -446
-267 -465 -42 -73 -257 -446 -274 -477 -11 -17 -53 -92 -95 -165 -42 -73 -135
-235 -207 -361 l-131 -227 3012 6 c1657 3 3395 7 3864 8 468 1 854 4 856 6 2
3 23 39 46 80 23 41 56 100 74 130 17 31 69 121 115 200 46 80 87 152 92 160
5 8 119 206 253 440 134 234 258 449 275 478 18 29 32 54 32 56 0 2 30 55 66
117 37 63 76 130 87 149 51 91 407 709 426 740 11 19 24 42 28 50 6 14 122
216 142 250 6 8 49 84 98 169 48 85 99 173 112 195 13 23 34 59 47 81 12 23
70 123 128 224 58 101 106 185 106 187 0 3 11 22 24 43 13 21 77 130 141 242
65 112 195 339 290 504 95 165 223 387 284 494 61 106 111 198 111 205 0 6 -6
21 -14 31 -8 11 -96 164 -196 340 -100 176 -199 349 -220 385 -40 68 -182 317
-220 385 -12 22 -26 45 -30 50 -4 6 -21 35 -37 65 -17 30 -65 116 -108 190
-43 74 -87 151 -97 170 -11 19 -255 445 -541 945 -286 501 -528 925 -538 943
-11 17 -27 47 -38 65 -10 17 -54 95 -98 172 -193 337 -247 432 -263 460 -16
29 -47 82 -220 385 -46 80 -91 159 -100 175 -9 17 -114 199 -232 405 -118 206
-226 395 -240 420 -44 79 -69 123 -123 215 -29 50 -64 110 -77 135 -14 25 -94
164 -177 309 -83 145 -151 267 -151 272 0 5 -4 9 -10 9 -5 0 -10 5 -10 11 0 8
-93 173 -105 187 -1 1 -29 -44 -61 -100z m152 -3414 c49 -86 96 -168 104 -183
9 -14 53 -91 98 -171 46 -80 87 -152 92 -160 9 -15 225 -393 263 -460 11 -19
56 -98 100 -175 44 -77 89 -156 100 -175 11 -19 35 -62 54 -95 19 -33 42 -73
52 -90 10 -16 33 -57 51 -90 18 -33 53 -93 77 -133 24 -41 43 -75 43 -76 0 -2
45 -81 100 -176 55 -95 100 -174 100 -175 0 -2 36 -64 80 -140 44 -76 80 -139
80 -141 0 -3 11 -21 23 -42 13 -20 35 -57 49 -82 14 -25 63 -110 108 -190 46
-80 92 -161 103 -180 11 -19 28 -48 38 -65 11 -16 22 -37 26 -45 4 -8 26 -48
50 -88 24 -41 43 -77 43 -80 0 -4 -15 -32 -33 -62 -18 -30 -47 -80 -64 -110
-17 -30 -115 -201 -218 -380 -103 -179 -197 -343 -210 -365 -12 -22 -38 -67
-57 -100 -20 -33 -47 -80 -60 -105 -14 -25 -92 -160 -173 -300 -81 -140 -157
-273 -170 -295 -61 -109 -494 -862 -615 -1070 -51 -88 -104 -180 -118 -205
-14 -25 -77 -135 -141 -245 -63 -110 -126 -221 -140 -247 l-26 -48 -640 0
c-352 -1 -1224 -2 -1937 -4 -714 -1 -1298 -1 -1298 1 0 2 78 140 174 306 95
166 186 325 201 352 15 28 31 55 35 60 4 6 19 30 33 55 14 25 63 111 109 191
47 80 88 152 91 160 4 8 16 28 26 45 17 29 134 231 509 884 74 129 166 288
203 353 38 65 69 120 69 123 0 3 16 30 35 60 19 30 35 57 35 60 0 3 15 28 33
57 18 29 38 63 45 77 7 14 23 43 37 65 13 22 27 47 31 55 4 8 29 51 55 95 75
129 349 605 382 665 16 30 33 60 37 65 5 6 19 30 33 55 14 25 100 176 192 335
92 160 177 308 189 330 13 22 50 87 83 145 34 58 69 120 79 137 41 71 270 469
280 488 6 11 53 92 104 180 51 88 106 185 123 215 16 30 37 66 46 80 27 43 39
63 72 125 17 33 36 67 43 75 6 8 16 24 22 35 6 11 100 175 209 365 237 413
258 449 298 520 42 76 51 90 57 90 4 0 46 -70 96 -156z"/>
<path d="M30497 14438 c-20 -39 3 0 -402 -693 -180 -308 -337 -578 -350 -600
-12 -22 -53 -92 -90 -155 -38 -63 -76 -128 -85 -145 -8 -16 -23 -41 -32 -55
-13 -21 -448 -768 -498 -855 -10 -16 -72 -124 -140 -240 -67 -115 -130 -223
-140 -240 -9 -16 -104 -178 -210 -360 -106 -181 -202 -346 -213 -365 -25 -45
-140 -242 -227 -390 -37 -63 -77 -131 -88 -150 -26 -48 -220 -381 -231 -400
-13 -21 -754 -1290 -766 -1312 -5 -10 -90 -155 -187 -322 -98 -168 -178 -309
-178 -315 0 -14 -10 4 698 -1216 79 -137 202 -349 272 -470 71 -121 217 -373
326 -560 108 -187 206 -356 217 -375 11 -19 42 -73 70 -120 51 -87 71 -122
115 -199 14 -25 38 -68 55 -95 16 -28 37 -64 47 -81 9 -16 115 -199 235 -405
120 -206 229 -395 243 -420 13 -25 28 -49 32 -55 4 -5 19 -30 32 -55 14 -25
65 -112 113 -195 48 -82 95 -163 105 -180 9 -16 93 -160 185 -320 93 -159 174
-299 180 -310 6 -11 32 -57 59 -103 l48 -83 2752 6 c4628 8 4946 10 4946 18 0
5 -24 50 -54 100 -29 51 -63 108 -74 127 -10 19 -68 118 -127 220 -59 102
-115 199 -125 215 -10 17 -41 70 -69 118 -28 49 -51 93 -51 98 0 5 -4 9 -8 9
-5 0 -16 15 -25 34 -9 19 -71 128 -138 243 -67 114 -133 228 -147 253 -14 25
-33 59 -43 75 -10 17 -40 68 -67 115 -26 47 -131 227 -232 400 -100 173 -191
329 -200 345 -9 17 -50 87 -90 155 -40 69 -81 140 -91 158 -11 17 -27 47 -38
65 -10 17 -123 212 -251 432 -128 220 -244 420 -258 445 -14 25 -44 78 -68
117 -24 40 -44 77 -44 83 0 5 -4 10 -10 10 -5 0 -10 4 -10 10 0 5 -27 55 -60
111 -33 55 -60 102 -60 104 0 1 -49 87 -110 190 -60 103 -110 188 -110 190 0
2 -22 40 -50 84 -27 44 -50 83 -50 85 0 3 -29 54 -64 113 -35 59 -139 239
-231 398 -92 160 -197 339 -231 398 -35 60 -64 111 -64 115 0 3 -6 13 -14 21
-7 9 -27 41 -43 71 -17 30 -39 71 -51 90 -141 242 -198 340 -212 365 -9 17
-84 145 -165 285 -82 140 -156 269 -165 285 -10 17 -41 71 -70 120 -29 50 -61
105 -72 124 -45 78 -272 471 -303 521 -18 30 -76 132 -130 225 -54 94 -195
337 -313 540 -118 204 -225 388 -238 410 -12 22 -45 78 -73 125 -28 47 -60
103 -72 125 -12 22 -60 105 -107 185 -47 80 -96 165 -110 190 -14 25 -33 57
-43 72 -11 14 -19 29 -19 32 0 4 -87 157 -130 226 -9 15 -181 313 -231 400
-14 25 -59 101 -99 170 -40 68 -81 138 -90 155 -10 16 -50 86 -90 155 -96 166
-102 176 -139 240 -17 30 -36 62 -41 70 -6 8 -13 22 -17 30 -4 8 -28 50 -55
93 -26 43 -48 80 -48 82 0 2 -38 68 -84 147 -46 79 -93 160 -105 180 -11 21
-75 130 -141 243 -66 114 -120 210 -120 216 0 5 -4 9 -10 9 -5 0 -10 7 -10 15
0 25 -15 17 -33 -17z m103 -3425 c40 -70 96 -166 123 -213 27 -47 68 -116 90
-155 22 -38 52 -90 67 -115 15 -25 80 -137 145 -250 65 -113 138 -238 162
-277 24 -40 43 -75 43 -79 0 -3 14 -25 30 -49 17 -24 30 -46 30 -49 0 -3 25
-46 55 -97 30 -50 55 -93 55 -95 0 -1 34 -60 75 -129 41 -70 75 -128 75 -130
0 -2 34 -61 76 -131 42 -71 86 -147 99 -169 12 -22 178 -310 370 -639 191
-329 355 -613 365 -630 10 -17 156 -269 325 -561 170 -291 316 -543 325 -560
33 -56 632 -1090 778 -1340 80 -137 153 -265 164 -282 40 -71 133 -232 361
-623 49 -85 91 -157 92 -160 2 -3 -864 -6 -1925 -8 l-1927 -3 -92 156 c-50 86
-91 160 -91 166 0 5 -4 9 -10 9 -5 0 -10 5 -10 10 0 6 -47 90 -104 188 -57 97
-113 193 -123 212 -11 19 -34 58 -50 86 -17 27 -41 70 -55 95 -14 24 -146 251
-293 504 -147 253 -276 476 -287 495 -35 61 -118 204 -128 220 -5 8 -44 76
-86 150 -43 74 -96 167 -119 205 -43 73 -218 374 -253 435 -10 19 -84 145
-162 280 -78 135 -154 265 -168 290 -13 25 -28 50 -33 56 -5 6 26 70 81 164
50 84 90 154 90 155 0 1 25 45 56 96 32 52 70 119 87 149 16 30 35 62 41 70 6
8 22 35 35 60 13 25 29 52 35 60 6 8 19 29 28 45 9 17 260 449 558 960 299
512 550 944 560 960 50 88 211 363 261 448 33 54 59 100 59 103 0 10 35 52 41
48 3 -2 39 -61 79 -131z"/>
</g>
</svg>
